<svg width="1544" height="2437" viewBox="0 0 1544 2437" fill="none" xmlns="http://www.w3.org/2000/svg">
<path d="M893.509 215.008C909.314 193.922 920.345 169.651 925.838 143.877L933.691 107.026C946.992 44.615 1002.12 0 1065.93 0H1091.3C1165.82 0 1220.74 69.6788 1203.32 142.136V142.136C1196.98 168.528 1181.52 191.833 1159.67 207.941L1129.72 230.023C1019.74 311.117 1011.06 472.416 1111.71 564.841L1197.77 643.866C1294.13 732.346 1325.4 871.359 1276.23 992.581L1205.97 1165.77C1140.1 1328.15 1198.73 1514.44 1345.72 1609.83V1609.83C1466.39 1688.14 1529.92 1829.94 1508.02 1972.12L1488.73 2097.39C1458.68 2292.49 1290.79 2436.5 1093.39 2436.5H22.5V2436.5C14.4809 2436.5 10.6263 2426.66 16.5108 2421.21L498.814 1974.7C595.503 1885.19 612.21 1738.43 538.115 1629.48L529.378 1616.63C460.004 1514.62 464.308 1379.51 540.033 1282.12L869.422 858.5C934.36 774.984 924.059 655.554 845.779 584.39V584.39C768.517 514.152 757.337 396.679 819.963 313.127L893.509 215.008Z" fill="url(#paint0_linear_695_6)"/>
<path d="M1019.5 202C976.542 281.862 932 282.5 902.5 417.5C873.001 552.5 1091.5 627 1091.5 824.5C1091.5 1022 774 1218.5 810.5 1467.5C847 1716.5 1100.29 1815.71 1114.5 2012C1128.71 2208.29 1089.86 2196.16 939 2346" stroke="url(#paint1_linear_695_6)" stroke-width="50" stroke-dasharray="140 140"/>
<defs>
<linearGradient id="paint0_linear_695_6" x1="985.5" y1="2299.5" x2="985.5" y2="-267.5" gradientUnits="userSpaceOnUse">
<stop stop-color="#DEFFCC"/>
<stop offset="1" stop-color="#7DD44B"/>
</linearGradient>
<linearGradient id="paint1_linear_695_6" x1="939" y1="114.5" x2="1116" y2="1439.5" gradientUnits="userSpaceOnUse">
<stop stop-color="white"/>
<stop offset="1" stop-color="#AFF387"/>
</linearGradient>
</defs>
</svg>
